<?xml version="1.0" encoding="UTF-8"?><svg xmlns="http://www.w3.org/2000/svg" xmlns:xlink="http://www.w3.org/1999/xlink" height="251.6" preserveAspectRatio="xMidYMid meet" version="1.0" viewBox="0.0 -0.0 492.9 251.6" width="492.9" zoomAndPan="magnify"><defs><clipPath id="a"><path d="M 0 100 L 492.871094 100 L 492.871094 251.621094 L 0 251.621094 Z M 0 100"/></clipPath></defs><g><g id="change1_1"><path d="M 323.972656 73.222656 C 323.972656 113.664062 291.1875 146.449219 250.746094 146.449219 C 210.304688 146.449219 177.519531 113.664062 177.519531 73.222656 C 177.519531 32.78125 210.304688 -0.00390625 250.746094 -0.00390625 C 291.1875 -0.00390625 323.972656 32.78125 323.972656 73.222656" fill="#b53440"/></g><g clip-path="url(#a)" id="change2_1"><path d="M 491.808594 247.09375 C 491.628906 246.957031 491.417969 246.851562 491.1875 246.773438 C 456.980469 230.960938 426.164062 207.023438 396.617188 183.972656 C 368.511719 162.039062 341.230469 139.035156 314.5 115.449219 C 309.179688 110.75 303.875 106.03125 298.628906 101.25 C 296.835938 99.617188 293.222656 100.332031 291.015625 100.332031 C 282.183594 100.332031 273.347656 100.332031 264.511719 100.332031 C 251.683594 100.332031 238.855469 100.332031 226.027344 100.332031 C 219.519531 100.332031 213.007812 100.332031 206.5 100.332031 C 203.890625 100.332031 200.429688 99.730469 197.910156 100.421875 C 195.105469 101.191406 192.007812 106.136719 190.027344 108.207031 C 170.496094 128.664062 150.273438 148.484375 129.144531 167.292969 C 102.746094 190.800781 74.683594 213.214844 43.695312 230.421875 C 31.6875 237.089844 18.695312 243.59375 5.089844 246.234375 C 3.1875 246.601562 3.902344 246.554688 2.417969 246.621094 C -0.789062 246.761719 -0.820312 251.621094 2.417969 251.621094 C 32.203125 251.621094 61.992188 251.621094 91.78125 251.621094 C 154.609375 251.621094 217.4375 251.621094 280.265625 251.621094 C 336.324219 251.621094 392.386719 251.621094 448.445312 251.621094 C 462.402344 251.621094 476.363281 251.621094 490.320312 251.621094 C 491.601562 251.621094 492.363281 250.832031 492.628906 249.878906 C 493.082031 248.90625 492.941406 247.75 491.808594 247.09375" fill="#2e2d2d"/></g><g id="change3_1"><path d="M 158.550781 138.226562 C 158.550781 138.226562 199.671875 97.632812 219.769531 73.925781 C 231.203125 63.097656 234.714844 70.835938 234.714844 70.835938 C 234.714844 70.835938 238.320312 59.496094 249.144531 59.496094 C 259.96875 59.496094 259.449219 66.195312 259.449219 66.195312 C 259.449219 66.195312 267.179688 57.949219 279.550781 70.835938 C 300.332031 102.613281 351.023438 144.730469 351.023438 144.730469 C 351.023438 144.730469 330.566406 145.042969 300.164062 116.183594 C 303.75 127.34375 312.015625 137.3125 312.015625 137.3125 C 312.015625 137.3125 288.308594 124.429688 282.125 117.730469 C 283.125 127.863281 286.765625 137.3125 286.765625 137.3125 C 286.765625 137.3125 265.121094 122.367188 263.058594 113.089844 C 260.996094 103.816406 270.273438 148.132812 270.273438 148.132812 C 270.273438 148.132812 258.421875 134.734375 258.421875 127.003906 C 258.421875 119.273438 249.660156 151.742188 249.660156 151.742188 L 246.367188 114.121094 C 246.367188 114.121094 233.167969 137.828125 229.046875 143.496094 C 232.140625 130.097656 232.652344 114.636719 232.652344 114.636719 C 232.652344 114.636719 218.738281 133.703125 207.402344 138.859375 C 212.894531 135.511719 218.226562 113.089844 218.226562 113.089844 C 218.226562 113.089844 202.25 135.765625 183.695312 141.949219 C 191.425781 134.734375 192.972656 123.398438 192.972656 123.398438 C 192.972656 123.398438 173.597656 136.828125 158.550781 138.226562" fill="#f7f7f7"/></g><g id="change4_1"><path d="M 158.550781 138.226562 L 158.550781 138.226562 M 158.550781 138.226562 L 158.550781 138.226562 M 158.550781 138.226562 L 158.550781 138.226562 M 158.550781 138.226562 C 158.550781 138.222656 158.554688 138.222656 158.554688 138.222656 C 158.554688 138.222656 158.550781 138.222656 158.550781 138.226562 M 158.554688 138.222656 C 158.554688 138.222656 158.558594 138.21875 158.558594 138.21875 C 158.558594 138.21875 158.554688 138.222656 158.554688 138.222656 M 158.558594 138.21875 C 158.5625 138.214844 158.5625 138.214844 158.566406 138.210938 C 158.5625 138.214844 158.5625 138.214844 158.558594 138.21875 M 158.566406 138.210938 C 158.933594 137.847656 164.941406 131.910156 173.339844 123.40625 C 164.941406 131.910156 158.933594 137.847656 158.566406 138.210938" fill="#ebebe9"/></g><g id="change5_3"><path d="M 160.597656 137.96875 C 175.296875 135.652344 192.972656 123.398438 192.972656 123.398438 C 192.972656 123.398438 175.296875 135.652344 160.597656 137.96875 M 192.390625 126.195312 C 192.820312 124.503906 192.96875 123.421875 192.972656 123.398438 C 192.96875 123.421875 192.820312 124.503906 192.390625 126.195312" fill="#2c2b2b"/></g><g id="change6_3"><path d="M 158.550781 138.226562 C 158.550781 138.222656 158.554688 138.222656 158.554688 138.222656 C 158.554688 138.222656 158.558594 138.21875 158.558594 138.21875 C 158.5625 138.214844 158.5625 138.214844 158.566406 138.210938 C 158.933594 137.847656 164.941406 131.910156 173.339844 123.40625 C 185.90625 120.121094 199.3125 110.832031 199.3125 110.832031 C 199.3125 110.832031 198.105469 119.636719 192.390625 126.195312 C 192.820312 124.503906 192.96875 123.421875 192.972656 123.398438 C 192.972656 123.398438 175.296875 135.652344 160.597656 137.96875 C 159.90625 138.078125 159.222656 138.164062 158.550781 138.226562" fill="#e1e0de"/></g><g id="change5_6"><path d="M 183.695312 141.949219 C 183.707031 141.941406 183.714844 141.933594 183.722656 141.925781 C 183.714844 141.933594 183.707031 141.941406 183.695312 141.949219 M 183.730469 141.917969 C 183.738281 141.914062 183.742188 141.90625 183.75 141.902344 C 183.742188 141.90625 183.738281 141.914062 183.730469 141.917969 M 183.757812 141.894531 C 183.765625 141.886719 183.773438 141.878906 183.777344 141.875 C 183.773438 141.878906 183.765625 141.886719 183.757812 141.894531 M 183.78125 141.871094 C 183.800781 141.851562 183.820312 141.835938 183.835938 141.820312 C 183.820312 141.835938 183.800781 141.851562 183.78125 141.871094 M 183.839844 141.816406 C 183.847656 141.808594 183.855469 141.800781 183.863281 141.792969 C 183.855469 141.800781 183.847656 141.808594 183.839844 141.816406 M 183.867188 141.789062 C 183.875 141.78125 183.882812 141.773438 183.890625 141.765625 C 183.882812 141.773438 183.875 141.78125 183.867188 141.789062 M 183.894531 141.765625 C 183.921875 141.738281 183.949219 141.710938 183.976562 141.683594 C 183.949219 141.710938 183.921875 141.738281 183.894531 141.765625 M 183.976562 141.683594 C 188.613281 137.210938 190.957031 131.269531 192.070312 127.390625 C 190.957031 131.269531 188.613281 137.210938 183.976562 141.683594 M 216.546875 119.351562 C 217.527344 115.96875 218.144531 113.433594 218.21875 113.121094 C 218.144531 113.429688 217.527344 115.96875 216.546875 119.351562 M 218.21875 113.117188 C 218.21875 113.117188 218.21875 113.113281 218.21875 113.113281 C 218.21875 113.117188 218.21875 113.117188 218.21875 113.117188 M 218.21875 113.113281 L 218.21875 113.113281 M 218.21875 113.113281 C 218.21875 113.109375 218.222656 113.105469 218.222656 113.101562 C 218.222656 113.105469 218.21875 113.109375 218.21875 113.113281 M 218.222656 113.101562 C 218.222656 113.101562 218.222656 113.101562 218.222656 113.097656 C 218.222656 113.101562 218.222656 113.101562 218.222656 113.101562 M 218.222656 113.097656 L 218.222656 113.097656 M 218.222656 113.097656 L 218.222656 113.097656 M 218.222656 113.09375 L 218.222656 113.09375 M 218.222656 113.09375 L 218.222656 113.09375 M 218.222656 113.09375 L 218.222656 113.09375 M 218.222656 113.09375 C 218.222656 113.09375 218.222656 113.09375 218.222656 113.089844 C 218.222656 113.09375 218.222656 113.09375 218.222656 113.09375" fill="#2c2b2b"/></g><g id="change6_5"><path d="M 183.695312 141.949219 C 183.707031 141.941406 183.714844 141.933594 183.722656 141.925781 C 183.726562 141.925781 183.726562 141.921875 183.730469 141.917969 C 183.738281 141.914062 183.742188 141.90625 183.75 141.902344 C 183.753906 141.898438 183.753906 141.894531 183.757812 141.894531 C 183.765625 141.886719 183.773438 141.878906 183.777344 141.875 C 183.78125 141.871094 183.78125 141.871094 183.78125 141.871094 C 183.800781 141.851562 183.820312 141.835938 183.835938 141.820312 C 183.839844 141.816406 183.839844 141.816406 183.839844 141.816406 C 183.847656 141.808594 183.855469 141.800781 183.863281 141.792969 C 183.863281 141.792969 183.867188 141.789062 183.867188 141.789062 C 183.875 141.78125 183.882812 141.773438 183.890625 141.765625 C 183.894531 141.765625 183.894531 141.765625 183.894531 141.765625 C 183.921875 141.738281 183.949219 141.710938 183.976562 141.683594 C 188.613281 137.210938 190.957031 131.269531 192.070312 127.390625 C 208.539062 121.148438 222.472656 101.378906 222.472656 101.378906 C 222.472656 101.378906 219.890625 112.234375 216.546875 119.351562 C 217.527344 115.96875 218.144531 113.429688 218.21875 113.121094 C 218.21875 113.121094 218.21875 113.117188 218.21875 113.117188 C 218.21875 113.117188 218.21875 113.117188 218.21875 113.113281 C 218.21875 113.109375 218.222656 113.105469 218.222656 113.101562 C 218.222656 113.101562 218.222656 113.101562 218.222656 113.097656 L 218.222656 113.09375 C 218.222656 113.09375 218.222656 113.09375 218.222656 113.089844 C 218.226562 113.089844 218.226562 113.089844 218.226562 113.089844 C 218.226562 113.089844 202.25 135.765625 183.695312 141.949219" fill="#e1e0de"/></g><g id="change4_2"><path d="M 350.980469 144.730469 C 350.976562 144.730469 350.976562 144.730469 350.976562 144.730469 C 350.976562 144.730469 350.976562 144.730469 350.980469 144.730469 M 350.972656 144.730469 C 350.972656 144.730469 350.972656 144.730469 350.96875 144.730469 C 350.972656 144.730469 350.972656 144.730469 350.972656 144.730469 M 351.023438 144.730469 L 351.023438 144.730469 M 350.96875 144.730469 C 350.964844 144.730469 350.964844 144.730469 350.960938 144.730469 C 350.964844 144.730469 350.964844 144.730469 350.96875 144.730469 M 351.023438 144.730469 C 351.023438 144.730469 342.464844 137.621094 330.941406 127.039062 C 342.46875 137.621094 351.023438 144.730469 351.023438 144.730469 M 350.960938 144.730469 L 350.957031 144.730469 L 350.960938 144.730469 M 350.957031 144.730469 C 350.953125 144.730469 350.953125 144.730469 350.953125 144.730469 C 350.953125 144.730469 350.953125 144.730469 350.957031 144.730469 M 350.953125 144.730469 L 350.949219 144.730469 L 350.953125 144.730469" fill="#ebebe9"/></g><g id="change5_5"><path d="M 312.023438 126.4375 C 312.019531 126.4375 312.019531 126.4375 312.015625 126.433594 C 312.019531 126.4375 312.019531 126.4375 312.023438 126.4375 M 311.953125 126.386719 C 311.949219 126.382812 311.945312 126.378906 311.941406 126.375 C 311.945312 126.378906 311.949219 126.382812 311.953125 126.386719 M 311.886719 126.332031 C 311.878906 126.328125 311.867188 126.320312 311.863281 126.316406 C 311.871094 126.320312 311.878906 126.324219 311.886719 126.332031 M 311.816406 126.277344 C 311.808594 126.269531 311.796875 126.261719 311.785156 126.253906 C 311.796875 126.261719 311.804688 126.269531 311.816406 126.277344 M 311.757812 126.230469 C 311.738281 126.21875 311.722656 126.203125 311.707031 126.191406 C 311.722656 126.203125 311.738281 126.21875 311.757812 126.230469 M 311.6875 126.175781 C 310.628906 125.347656 309.554688 124.480469 308.464844 123.574219 C 309.554688 124.480469 310.628906 125.347656 311.6875 126.175781" fill="#2c2b2b"/></g><g id="change6_1"><path d="M 350.996094 144.734375 C 350.992188 144.734375 350.988281 144.734375 350.980469 144.730469 C 350.976562 144.730469 350.976562 144.730469 350.976562 144.730469 C 350.976562 144.730469 350.972656 144.730469 350.972656 144.730469 C 350.972656 144.730469 350.972656 144.730469 350.96875 144.730469 C 350.964844 144.730469 350.964844 144.730469 350.960938 144.730469 L 350.957031 144.730469 C 350.953125 144.730469 350.953125 144.730469 350.953125 144.730469 L 350.949219 144.730469 C 349.773438 144.71875 334.804688 144.210938 312.023438 126.4375 C 312.019531 126.4375 312.019531 126.4375 312.015625 126.433594 C 311.996094 126.417969 311.976562 126.402344 311.953125 126.386719 C 311.949219 126.382812 311.945312 126.378906 311.941406 126.375 C 311.921875 126.359375 311.902344 126.347656 311.886719 126.332031 C 311.878906 126.324219 311.871094 126.320312 311.863281 126.316406 C 311.847656 126.300781 311.832031 126.289062 311.816406 126.277344 C 311.804688 126.269531 311.796875 126.261719 311.785156 126.253906 C 311.773438 126.246094 311.765625 126.238281 311.757812 126.230469 C 311.738281 126.21875 311.722656 126.203125 311.707031 126.191406 C 311.699219 126.1875 311.691406 126.179688 311.6875 126.175781 C 310.628906 125.347656 309.554688 124.480469 308.464844 123.574219 L 308.507812 123.597656 C 308.507812 123.597656 300.925781 114.453125 297.636719 104.214844 C 311.3125 117.195312 322.789062 123.738281 330.941406 127.039062 C 342.464844 137.621094 351.023438 144.730469 351.023438 144.730469 C 351.019531 144.730469 351.011719 144.734375 350.996094 144.734375" fill="#e1e0de"/></g><g id="change5_4"><path d="M 286.765625 137.3125 L 286.765625 137.3125 M 286.765625 137.3125 L 286.765625 137.3125 M 286.765625 137.3125 C 286.765625 137.3125 286.765625 137.3125 286.761719 137.3125 C 286.765625 137.3125 286.765625 137.3125 286.765625 137.3125 M 286.761719 137.3125 L 286.761719 137.3125 M 286.761719 137.3125 L 286.761719 137.3125 M 286.761719 137.3125 L 286.761719 137.3125 M 286.761719 137.3125 C 286.761719 137.308594 286.761719 137.308594 286.761719 137.304688 C 286.761719 137.308594 286.761719 137.308594 286.761719 137.3125 M 286.761719 137.304688 C 286.667969 137.058594 283.988281 130.015625 282.636719 121.636719 C 282.636719 121.640625 282.636719 121.640625 282.636719 121.640625 C 283.988281 130.015625 286.667969 137.058594 286.761719 137.304688" fill="#2c2b2b"/></g><g id="change6_6"><path d="M 286.765625 137.3125 C 286.761719 137.3125 286.761719 137.3125 286.761719 137.3125 C 286.589844 137.191406 274.421875 128.765625 267.53125 120.671875 C 265.578125 111.289062 263.277344 100.207031 263.324219 100.207031 C 263.335938 100.207031 263.421875 100.570312 263.601562 101.378906 C 265.054688 107.929688 277.144531 117.550781 282.636719 121.640625 C 283.988281 130.015625 286.667969 137.058594 286.761719 137.304688 C 286.761719 137.308594 286.761719 137.308594 286.761719 137.3125 C 286.765625 137.3125 286.765625 137.3125 286.765625 137.3125" fill="#e1e0de"/></g><g id="change5_2"><path d="M 312.015625 137.3125 L 312.015625 137.3125 M 312.015625 137.3125 C 311.96875 137.257812 305.347656 129.253906 301.402344 119.574219 C 301.402344 119.578125 301.40625 119.578125 301.40625 119.578125 C 305.351562 129.253906 311.96875 137.257812 312.015625 137.3125 M 312.015625 137.3125 L 312.015625 137.3125 M 312.015625 137.3125 C 312.015625 137.3125 312.015625 137.3125 312.011719 137.3125 C 312.015625 137.3125 312.015625 137.3125 312.015625 137.3125" fill="#2c2b2b"/></g><g id="change6_4"><path d="M 312.015625 137.3125 C 312.015625 137.3125 312.015625 137.3125 312.011719 137.3125 C 311.769531 137.179688 291.964844 126.394531 283.96875 119.476562 C 282.9375 116.074219 281.613281 110.964844 281.089844 105.632812 C 284.648438 109.488281 294.53125 115.574219 301.402344 119.574219 C 305.347656 129.253906 311.96875 137.257812 312.015625 137.3125" fill="#e1e0de"/></g><g id="change5_1"><path d="M 270.273438 148.132812 L 270.273438 148.132812 M 270.273438 148.132812 L 270.273438 148.132812 M 270.273438 148.132812 L 270.273438 148.132812 M 270.273438 148.132812 L 270.273438 148.132812 M 207.402344 138.859375 C 209.367188 137.660156 211.3125 134.019531 213 129.835938 C 211.3125 134.019531 209.367188 137.660156 207.402344 138.859375 M 213.007812 129.820312 L 213.007812 129.820312 M 213.011719 129.804688 L 213.011719 129.804688 M 258.144531 125.816406 L 258.144531 125.816406" fill="#2c2b2b"/></g><g id="change6_2"><path d="M 249.660156 151.742188 L 246.367188 114.121094 C 246.367188 114.121094 233.167969 137.828125 229.046875 143.496094 C 232.140625 130.097656 232.652344 114.636719 232.652344 114.636719 C 232.652344 114.636719 218.738281 133.703125 207.402344 138.859375 C 209.367188 137.660156 211.3125 134.019531 213 129.835938 C 213.003906 129.828125 213.003906 129.824219 213.007812 129.820312 C 213.007812 129.8125 213.011719 129.808594 213.011719 129.804688 C 213.835938 127.765625 214.59375 125.601562 215.265625 123.53125 C 225.039062 117.410156 235.710938 102.796875 235.710938 102.796875 C 235.710938 102.796875 235.238281 116.976562 232.402344 129.269531 C 236.183594 124.070312 248.289062 102.324219 248.289062 102.324219 L 251.308594 136.832031 C 251.308594 136.832031 257.726562 113.050781 259.09375 113.050781 C 259.253906 113.050781 259.347656 113.386719 259.347656 114.140625 C 259.347656 118.292969 263.074219 124.226562 266.160156 128.433594 C 268.128906 137.898438 270.230469 147.929688 270.273438 148.132812 C 270.273438 148.132812 258.421875 134.734375 258.421875 127.003906 C 258.421875 126.183594 258.320312 125.816406 258.144531 125.816406 C 256.675781 125.816406 249.828125 151.113281 249.660156 151.730469 C 249.660156 151.738281 249.660156 151.742188 249.660156 151.742188" fill="#e1e0de"/></g></g></svg>