<?xml version="1.0" encoding="UTF-8"?><svg xmlns="http://www.w3.org/2000/svg" xmlns:xlink="http://www.w3.org/1999/xlink" height="294.8" preserveAspectRatio="xMidYMid meet" version="1.0" viewBox="0.0 0.0 500.9 294.8" width="500.9" zoomAndPan="magnify"><defs><clipPath id="a"><path d="M 56 43 L 438 43 L 438 294.851562 L 56 294.851562 Z M 56 43"/></clipPath><clipPath id="b"><path d="M 52 0 L 500.859375 0 L 500.859375 263 L 52 263 Z M 52 0"/></clipPath></defs><g><g clip-path="url(#a)" id="change1_1"><path d="M 247.046875 262.101562 C 244.558594 262.101562 242.542969 260.082031 242.542969 257.597656 C 242.542969 255.109375 244.558594 253.09375 247.046875 253.09375 C 249.53125 253.09375 251.550781 255.109375 251.550781 257.597656 C 251.550781 260.082031 249.53125 262.101562 247.046875 262.101562 Z M 437.421875 169.265625 L 430.890625 156.707031 L 264.738281 243.09375 L 368.765625 84.953125 L 356.9375 77.175781 L 254.121094 233.476562 L 254.121094 43.613281 L 239.96875 43.613281 L 239.96875 233.960938 L 136.835938 77.175781 L 125.011719 84.953125 L 229.035156 243.09375 L 62.882812 156.707031 L 56.351562 169.265625 L 231.546875 260.351562 L 207.984375 272.601562 L 214.511719 285.160156 L 223.042969 280.726562 L 218.867188 287.070312 L 230.691406 294.851562 L 239.96875 280.746094 L 239.96875 294.851562 L 254.121094 294.851562 L 254.121094 281.230469 L 263.082031 294.851562 L 274.90625 287.070312 L 270.730469 280.726562 L 279.261719 285.160156 L 285.789062 272.601562 L 262.226562 260.351562 L 437.421875 169.265625" fill="#58595b"/></g><g id="change2_1"><path d="M 269.429688 179.742188 L 279.929688 196.917969 L 352.867188 48.789062 L 313.71875 0.00390625 Z M 306.445312 200.820312 L 307.574219 222.285156 L 448.859375 136.867188 L 437.421875 69.84375 Z M 250.429688 24.984375 L 187.140625 0.00390625 L 231.429688 179.742188 L 250.429688 190.0625 Z M 147.988281 48.789062 L 63.4375 69.84375 L 194.414062 200.820312 L 220.925781 196.917969 Z M 0 171.65625 L 52 136.867188 L 182.605469 215.828125 L 193.28125 222.285156 L 175.335938 231.292969 L 0 171.65625" fill="#ececec"/></g><g clip-path="url(#b)" id="change3_1"><path d="M 247.046875 253.09375 C 244.558594 253.09375 242.542969 255.109375 242.542969 257.597656 C 242.542969 260.082031 244.558594 262.101562 247.046875 262.101562 C 249.53125 262.101562 251.550781 260.082031 251.550781 257.597656 C 251.550781 255.109375 249.53125 253.09375 247.046875 253.09375 Z M 250.429688 190.0625 L 269.429688 179.742188 L 313.71875 0.00390625 L 250.429688 24.984375 Z M 279.929688 196.917969 L 306.445312 200.820312 L 437.421875 69.84375 L 352.867188 48.789062 Z M 500.859375 171.65625 L 448.859375 136.867188 L 318.253906 215.828125 L 307.574219 222.285156 L 325.523438 231.292969 Z M 187.140625 0.00390625 L 147.988281 48.789062 L 220.925781 196.917969 L 231.429688 179.742188 Z M 194.414062 200.820312 L 193.28125 222.285156 L 52 136.867188 L 63.4375 69.84375 L 194.414062 200.820312" fill="#d4d4d2"/></g><g id="change4_1"><path d="M 250.429688 165.996094 C 258.738281 165.824219 266.675781 164.152344 273.984375 161.242188 L 300.292969 54.492188 C 288.1875 40.386719 270.375 31.339844 250.429688 30.929688 Z M 227.15625 162.398438 C 200.570312 153.3125 181.441406 128.128906 181.441406 98.460938 C 181.441406 80.46875 188.488281 64.128906 199.957031 52.019531 L 227.15625 162.398438" fill="#991a1f"/></g><g id="change5_1"><path d="M 273.984375 161.242188 C 298.933594 151.308594 316.578125 126.953125 316.578125 98.460938 C 316.578125 81.664062 310.4375 66.3125 300.292969 54.492188 Z M 199.957031 52.019531 C 212.273438 39.015625 229.6875 30.894531 249.011719 30.894531 C 249.484375 30.894531 249.953125 30.917969 250.429688 30.929688 L 250.429688 165.996094 C 249.953125 166.003906 249.484375 166.03125 249.011719 166.03125 C 241.359375 166.03125 234.015625 164.738281 227.15625 162.398438 L 199.957031 52.019531" fill="#b62323"/></g></g></svg>